<svg width="204" height="68" viewBox="0 0 204 68" fill="none" xmlns="http://www.w3.org/2000/svg">
<rect width="204" height="67.6449" rx="5" fill="white"/>
<path d="M89.6201 32.9999V19.6599H87.2401L83.0801 29.8199L78.9401 19.6599H76.5601V32.9999H78.2201V21.8999L82.7401 32.9999H83.4201L87.9601 21.8999V32.9999H89.6201Z" fill="#0A66C2"/>
<path d="M104.152 32.9999L98.7719 19.6599H96.7119L91.3519 32.9999H93.1919L94.3719 30.0399H101.132L102.312 32.9999H104.152ZM100.632 28.5599H94.8519L97.7519 21.1399L100.632 28.5599Z" fill="#0A66C2"/>
<path d="M115.576 32.9999L111.976 27.5599C113.796 27.3999 115.436 26.0799 115.436 23.6799C115.436 21.2199 113.696 19.6599 111.256 19.6599H105.896V32.9999H107.556V27.6999H110.216L113.616 32.9999H115.576ZM113.716 23.6799C113.716 25.1799 112.636 26.2399 111.056 26.2399H107.556V21.1399H111.056C112.636 21.1399 113.716 22.1799 113.716 23.6799Z" fill="#0A66C2"/>
<path d="M128.184 32.9999L122.144 25.9999L127.704 19.6599H125.624L119.724 26.5599V19.6599H118.064V32.9999H119.724V28.5199L121.064 26.9999L126.124 32.9999H128.184Z" fill="#0A66C2"/>
<path d="M138.816 32.9999V31.5199H131.736V26.9199H138.676V25.4399H131.736V21.1399H138.816V19.6599H130.076V32.9999H138.816Z" fill="#0A66C2"/>
<path d="M146.422 32.9999V21.1399H150.662V19.6599H140.542V21.1399H144.762V32.9999H146.422Z" fill="#0A66C2"/>
<path d="M154.529 32.9999V19.6599H152.869V32.9999H154.529Z" fill="#0A66C2"/>
<path d="M168.694 32.9999V19.6599H167.034V30.1999L159.354 19.6599H157.654V32.9999H159.314V22.2399L167.094 32.9999H168.694Z" fill="#0A66C2"/>
<path d="M171.274 26.3399C171.274 30.4799 174.334 33.2599 178.134 33.2599C180.314 33.2599 182.134 32.3399 183.374 30.9599V26.1399H177.134V27.6199H181.714V30.3399C181.054 30.9999 179.734 31.7799 178.134 31.7799C175.214 31.7799 172.994 29.4999 172.994 26.3399C172.994 23.1599 175.214 20.9199 178.134 20.9199C179.734 20.9199 181.154 21.6799 181.994 22.7599L183.314 21.9399C182.134 20.4799 180.494 19.4399 178.134 19.4399C174.334 19.4399 171.274 22.1999 171.274 26.3399Z" fill="#0A66C2"/>
<path d="M78.2201 51.9999V46.6999H81.9201C84.5601 46.6999 86.1001 44.8599 86.1001 42.6799C86.1001 40.4999 84.6001 38.6599 81.9201 38.6599H76.5601V51.9999H78.2201ZM84.3801 42.6799C84.3801 44.1799 83.3001 45.2199 81.7201 45.2199H78.2201V40.1399H81.7201C83.3001 40.1399 84.3801 41.1799 84.3801 42.6799Z" fill="#0A66C2"/>
<path d="M98.1754 51.9999L92.7954 38.6599H90.7354L85.3754 51.9999H87.2154L88.3954 49.0399H95.1554L96.3354 51.9999H98.1754ZM94.6554 47.5599H88.8754L91.7754 40.1399L94.6554 47.5599Z" fill="#0A66C2"/>
<path d="M109.599 51.9999L105.999 46.5599C107.819 46.3999 109.459 45.0799 109.459 42.6799C109.459 40.2199 107.719 38.6599 105.279 38.6599H99.9194V51.9999H101.579V46.6999H104.239L107.639 51.9999H109.599ZM107.739 42.6799C107.739 44.1799 106.659 45.2399 105.079 45.2399H101.579V40.1399H105.079C106.659 40.1399 107.739 41.1799 107.739 42.6799Z" fill="#0A66C2"/>
<path d="M116.852 51.9999V40.1399H121.092V38.6599H110.972V40.1399H115.192V51.9999H116.852Z" fill="#0A66C2"/>
<path d="M134.338 51.9999V38.6599H132.678V49.1999L124.998 38.6599H123.298V51.9999H124.958V41.2399L132.738 51.9999H134.338Z" fill="#0A66C2"/>
<path d="M146.199 51.9999V50.5199H139.118V45.9199H146.059V44.4399H139.118V40.1399H146.199V38.6599H137.458V51.9999H146.199Z" fill="#0A66C2"/>
<path d="M158.525 51.9999L154.925 46.5599C156.745 46.3999 158.385 45.0799 158.385 42.6799C158.385 40.2199 156.645 38.6599 154.205 38.6599H148.845V51.9999H150.505V46.6999H153.165L156.565 51.9999H158.525ZM156.665 42.6799C156.665 44.1799 155.585 45.2399 154.005 45.2399H150.505V40.1399H154.005C155.585 40.1399 156.665 41.1799 156.665 42.6799Z" fill="#0A66C2"/>
<path d="M56.934 48.9372H50.8593V39.4201C50.8593 37.151 50.8184 34.2291 47.6993 34.2291C44.5354 34.2291 44.0509 36.7011 44.0509 39.2534V48.9364H37.9763V29.3707H43.8079V32.0449H43.8865C44.4703 31.0469 45.3137 30.2259 46.3271 29.6694C47.3405 29.1128 48.4858 28.8416 49.6411 28.8846C55.7983 28.8846 56.934 32.9352 56.934 38.2042V48.9372ZM31.1214 26.6957C30.4241 26.6958 29.7423 26.4892 29.1624 26.1018C28.5825 25.7145 28.1305 25.1638 27.8635 24.5196C27.5965 23.8753 27.5266 23.1663 27.6626 22.4823C27.7985 21.7982 28.1342 21.1699 28.6273 20.6767C29.1203 20.1835 29.7486 19.8476 30.4325 19.7115C31.1165 19.5753 31.8254 19.6451 32.4697 19.912C33.114 20.1788 33.6647 20.6308 34.0521 21.2106C34.4396 21.7905 34.6464 22.4723 34.6464 23.1697C34.6464 24.1047 34.275 25.0014 33.614 25.6627C32.9529 26.3239 32.0564 26.6955 31.1214 26.6957ZM34.1588 48.9364H28.0778V29.3707H34.1595L34.1588 48.9364ZM59.9595 14.0027H25.0247C24.6317 13.9979 24.2417 14.0707 23.8768 14.2169C23.512 14.3631 23.1796 14.5798 22.8986 14.8546C22.6177 15.1295 22.3937 15.4571 22.2395 15.8186C22.0853 16.1801 22.0039 16.5686 22 16.9616V52.0408C22.0093 52.8343 22.3332 53.5916 22.9005 54.1464C23.4678 54.7012 24.2321 55.0081 25.0255 54.9997H59.9595C60.755 55.0104 61.5222 54.7047 62.0924 54.1499C62.6626 53.595 62.989 52.8364 63 52.0408V16.9553C62.9886 16.1602 62.6619 15.4022 62.0917 14.8481C61.5215 14.2939 60.7545 13.989 59.9595 14.0003" fill="#0A66C2"/>
</svg>
