<svg width="150" height="51" viewBox="0 0 150 51" fill="none" xmlns="http://www.w3.org/2000/svg">
<rect x="0.104004" y="0.868652" width="149.388" height="49.1658" rx="5" fill="white"/>
<path d="M87.1056 35.5899L88.7843 26.5718C88.9925 25.47 89.1509 24.5039 89.2549 23.5989H89.9721L89.7097 25.4089H89.7436C90.497 24.2777 91.5536 23.479 92.6622 23.479C94.2459 23.479 94.8477 24.7958 94.8477 26.1759C94.8477 29.0062 92.9088 32.2619 90.2346 32.2619C89.4133 32.2619 88.8771 31.97 88.5558 31.97H88.5309L87.8658 35.5899H87.1056ZM88.678 31.022C89.1541 31.3526 89.7256 31.5179 90.3047 31.4926C92.5242 31.4926 94.0604 28.3478 94.0604 26.1985C94.0604 25.2007 93.6758 24.0831 92.4359 24.0831C91.2481 24.0831 89.6916 25.6035 89.221 28.1374L88.678 31.022Z" fill="#010101"/>
<path d="M100.544 32.1958C100.556 31.4374 100.626 30.681 100.755 29.9334H100.721C99.7591 31.7433 98.6844 32.2614 97.5916 32.2614C96.3156 32.2614 95.5554 31.1596 95.5554 29.6574C95.5554 26.7908 97.5916 23.4447 100.852 23.4447C101.425 23.4323 101.997 23.5086 102.546 23.6709L101.653 28.2863C101.395 29.5732 101.272 30.8835 101.286 32.1958H100.544ZM101.664 24.2048C101.336 24.1071 100.993 24.0658 100.65 24.0827C98.2387 24.0827 96.3518 26.775 96.3337 29.413C96.3156 30.5148 96.6301 31.4922 97.7658 31.4922C99.1233 31.4922 100.666 29.456 101.069 27.2818L101.664 24.2048Z" fill="#010101"/>
<path d="M103.081 32.196L104.142 26.4471C104.332 25.5064 104.466 24.5553 104.542 23.5987H105.221C105.167 24.2774 105.099 24.7299 104.995 25.6349H105.047C105.554 24.5036 106.404 23.5217 107.44 23.5217C107.545 23.5217 107.667 23.4878 107.755 23.4878L107.599 24.2661C107.507 24.2445 107.413 24.2346 107.318 24.2367C106.216 24.2367 104.995 25.9969 104.644 27.8317L103.841 32.196H103.081Z" fill="#010101"/>
<path d="M111.189 21.7612L110.821 23.5983H112.796L112.658 24.2771H110.683L109.755 29.2545C109.652 29.7283 109.593 30.2109 109.581 30.6957C109.581 31.1866 109.807 31.4785 110.332 31.4785C110.539 31.4879 110.746 31.4635 110.945 31.4061L110.997 32.0169C110.731 32.0968 110.454 32.138 110.176 32.1391C109.178 32.1391 108.793 31.474 108.793 30.7816C108.801 30.2693 108.865 29.7593 108.986 29.2613L109.931 24.2839H108.726L108.848 23.6051H110.069L110.35 22.1006L111.189 21.7612Z" fill="#010101"/>
<path d="M112.691 32.196L113.809 26.1688C114.001 25.1711 114.108 24.2774 114.178 23.5987H114.893L114.648 25.4087H114.685C115.418 24.2774 116.467 23.4697 117.626 23.4697C118.447 23.4697 119.497 23.9697 119.497 25.5602C119.486 26.0263 119.433 26.4905 119.339 26.9471L118.379 32.196H117.626L118.599 26.9335C118.677 26.5126 118.717 26.0856 118.721 25.6575C118.721 24.7842 118.372 24.1281 117.341 24.1281C116.221 24.1281 114.626 25.6191 114.264 27.6462L113.443 32.196H112.691Z" fill="#010101"/>
<path d="M125.553 31.511C124.867 31.938 124.072 32.1565 123.264 32.14C121.307 32.14 120.626 30.6015 120.626 28.9952C120.626 26.5947 122.32 23.4272 124.716 23.4272C126.096 23.4272 126.673 24.3187 126.673 25.2621C126.673 27.3933 124.225 27.9884 121.483 27.977C121.377 28.6744 121.4 29.3853 121.551 30.0743C121.85 31.0178 122.497 31.4906 123.388 31.4906C124.074 31.4896 124.746 31.2959 125.327 30.9318L125.553 31.511ZM125.918 25.2711C125.918 24.5019 125.377 24.0834 124.592 24.0834C123.298 24.0834 122.151 25.4816 121.628 27.2983C123.811 27.3164 125.927 26.9499 125.927 25.2892L125.918 25.2711Z" fill="#010101"/>
<path d="M127.18 32.196L128.246 26.4471C128.438 25.5067 128.572 24.5554 128.649 23.5987H129.327C129.275 24.2774 129.205 24.7299 129.101 25.6349H129.135C129.642 24.5036 130.481 23.5217 131.529 23.5217C131.635 23.5217 131.755 23.4878 131.843 23.4878L131.687 24.2661C131.595 24.2445 131.501 24.2346 131.406 24.2367C130.307 24.2367 129.083 25.9969 128.732 27.8317L127.929 32.196H127.18Z" fill="#010101"/>
<path d="M131.585 31.0042C132.014 31.3083 132.526 31.4733 133.051 31.477C134.153 31.477 134.904 30.6897 134.904 29.7282C134.904 28.8888 134.556 28.3707 133.773 27.8752C132.934 27.3345 132.479 26.5834 132.479 25.796C132.479 24.4861 133.547 23.4204 135.031 23.4204C135.518 23.4067 135.998 23.534 136.413 23.787L136.133 24.434C135.775 24.2145 135.365 24.0935 134.945 24.0833C133.932 24.0833 133.248 24.8005 133.248 25.6671C133.248 26.4544 133.701 26.891 134.38 27.3639C135.185 27.9046 135.674 28.6739 135.674 29.5291C135.674 31.2259 134.434 32.1513 132.981 32.1513C132.378 32.1559 131.788 31.9751 131.291 31.6332L131.585 31.0042Z" fill="#010101"/>
<path d="M20.8609 22.3458H20.8111C20.7165 22.3309 20.6296 22.2847 20.5644 22.2145C20.4992 22.1444 20.4594 22.0544 20.4514 21.9589C20.4514 21.7756 20.3338 17.4634 22.8632 16.4837C23.1387 16.3568 23.4428 16.3044 23.7449 16.3318C24.0471 16.3592 24.3367 16.4654 24.5849 16.6399C25.1822 17.0765 25.6347 17.9249 25.9017 19.167C26.0196 19.7162 26.0953 20.2737 26.1279 20.8345C26.1304 20.8773 26.123 20.9202 26.1065 20.9599C26.0899 20.9995 26.0645 21.0348 26.0322 21.0632C25.9999 21.0915 25.9616 21.1121 25.9202 21.1235C25.8788 21.1348 25.8353 21.1365 25.7931 21.1286C25.6983 21.1141 25.6112 21.068 25.5459 20.9977C25.4806 20.9275 25.4409 20.8373 25.4333 20.7417C25.4017 19.9611 25.1324 17.8005 24.2546 17.1783C23.9741 16.9792 23.6347 16.9521 23.2161 17.124C21.0487 17.9657 21.1528 22.0132 21.1528 22.0539C21.1555 22.0929 21.1497 22.1321 21.136 22.1687C21.1223 22.2053 21.1009 22.2386 21.0732 22.2662C21.0456 22.2939 21.0123 22.3153 20.9757 22.329C20.9391 22.3427 20.8999 22.3484 20.8609 22.3458Z" fill="#96BF47"/>
<path d="M26.2589 18.1051L16.4805 21.1323C16.2951 21.18 16.1196 21.2605 15.9624 21.3698C15.8846 21.5158 15.8406 21.6774 15.8335 21.8427L14.3221 33.5056L25.6684 35.6437L26.5394 18.0938C26.4461 18.079 26.3507 18.0828 26.2589 18.1051Z" fill="#96BF47"/>
<path d="M29.6436 19.612C29.6362 19.5651 29.613 19.522 29.578 19.4899C29.5457 19.4692 29.5095 19.4553 29.4716 19.4491L27.8698 19.3315L26.6911 18.1595C26.6472 18.1266 26.596 18.1048 26.5418 18.0962L25.6685 35.6438L31.8156 34.3135L29.6436 19.612Z" fill="#5F8F3E"/>
<path d="M22.2206 27.8478C22.0469 27.6196 21.8489 27.411 21.6301 27.2256C21.4242 27.0533 21.2073 26.8946 20.9808 26.7505C20.8402 26.6665 20.7056 26.5727 20.578 26.47C20.4757 26.3907 20.3824 26.3004 20.2998 26.2007C20.2307 26.1208 20.1757 26.0297 20.1369 25.9315C20.1037 25.8418 20.0884 25.7465 20.0916 25.651C20.0968 25.5274 20.126 25.4059 20.1776 25.2935C20.2273 25.185 20.2999 25.0886 20.3902 25.0107C20.4867 24.9296 20.5971 24.8667 20.716 24.8252C20.8565 24.778 21.0026 24.7499 21.1504 24.7414C21.4737 24.7261 21.7976 24.7573 22.112 24.8342C22.2462 24.8672 22.3784 24.908 22.5079 24.9564C22.6157 24.9963 22.7214 25.0416 22.8247 25.0921L23.5826 22.8297C23.4524 22.7642 23.3159 22.7119 23.1753 22.6736C23.0023 22.6265 22.8261 22.5917 22.6482 22.5695C22.4433 22.5442 22.237 22.5321 22.0305 22.5333C21.8035 22.5345 21.5768 22.5504 21.3518 22.5808C20.8689 22.6406 20.3994 22.7805 19.9626 22.9948C19.5774 23.1835 19.2301 23.4411 18.9378 23.755C18.6589 24.0563 18.4373 24.4059 18.2839 24.7867C18.1238 25.1924 18.0336 25.6223 18.0169 26.0582C18.0044 26.3148 18.0303 26.5718 18.0939 26.8206C18.147 27.0587 18.2355 27.2875 18.3563 27.4994C18.4772 27.7026 18.6215 27.8909 18.7862 28.0605C18.9555 28.2363 19.1394 28.3976 19.3359 28.5424C19.4817 28.6417 19.6208 28.7506 19.7522 28.8682C19.8562 28.9627 19.9489 29.069 20.0283 29.1849C20.0941 29.2818 20.1438 29.3888 20.1753 29.5017C20.2045 29.6123 20.2167 29.7267 20.2115 29.841C20.2077 29.9536 20.1816 30.0644 20.1346 30.1668C20.0919 30.265 20.0259 30.3512 19.9423 30.4179C19.8546 30.4885 19.7515 30.5373 19.6414 30.5605C19.5083 30.5858 19.3717 30.5858 19.2387 30.5605C19.0636 30.5394 18.8914 30.4992 18.7251 30.4406C18.5615 30.3767 18.4027 30.301 18.25 30.2143C18.1092 30.1353 17.9725 30.0493 17.8405 29.9564C17.7183 29.8704 17.6142 29.7867 17.5237 29.7121L17.0056 31.4315C17.1012 31.5517 17.2097 31.6609 17.3291 31.7573C17.471 31.8726 17.6223 31.9755 17.7816 32.065C17.958 32.1682 18.1418 32.2582 18.3314 32.3342C18.5374 32.4173 18.7491 32.4854 18.9649 32.5379H19.0079C19.4526 32.6416 19.9121 32.6661 20.3654 32.6103C20.7893 32.5583 21.1953 32.408 21.5509 32.1714C21.9195 31.921 22.2173 31.5797 22.4151 31.1804C22.6477 30.7 22.7749 30.1755 22.7885 29.6419C22.8053 29.3047 22.76 28.9673 22.655 28.6464C22.553 28.3591 22.4064 28.0896 22.2206 27.8478Z" fill="white"/>
<path d="M18.4764 21.7523H18.4266C18.3822 21.746 18.3395 21.7309 18.3009 21.708C18.2623 21.6851 18.2286 21.6548 18.2017 21.6189C18.1748 21.583 18.1552 21.5421 18.1441 21.4986C18.1331 21.4551 18.1306 21.4099 18.137 21.3655C18.1687 21.1777 18.8135 16.8654 21.5126 15.8858C22.1914 15.6392 22.766 15.6935 23.2072 16.051C23.7389 16.4808 24.0307 17.3292 24.0782 18.5713C24.0966 19.129 24.0717 19.6872 24.0036 20.241C23.9973 20.2856 23.9824 20.3285 23.9596 20.3673C23.9368 20.4061 23.9065 20.44 23.8706 20.4671C23.8347 20.4942 23.7938 20.5139 23.7502 20.5252C23.7066 20.5365 23.6613 20.5391 23.6167 20.5329C23.5721 20.5266 23.5292 20.5117 23.4905 20.4889C23.4517 20.4661 23.4178 20.4358 23.3907 20.3999C23.3635 20.364 23.3438 20.3231 23.3325 20.2795C23.3212 20.2359 23.3186 20.1906 23.3248 20.146C23.4334 19.3655 23.5511 17.2048 22.7751 16.5826C22.5307 16.3858 22.1936 16.3564 21.7479 16.5283C19.4312 17.37 18.8203 21.4175 18.8067 21.4582C18.795 21.5383 18.7555 21.6116 18.6951 21.6654C18.6347 21.7192 18.5573 21.75 18.4764 21.7523Z" fill="#96BF47"/>
<path d="M38.9829 27.0739C38.3698 26.7413 38.0553 26.4607 38.0553 26.0761C38.0553 25.5852 38.4919 25.2707 39.1752 25.2707C39.6955 25.272 40.2095 25.3854 40.682 25.6033L41.2454 23.8793C40.8585 23.653 40.1413 23.4766 39.2091 23.4766C37.0892 23.4766 35.6345 24.6847 35.6345 26.3838C35.6345 27.3476 36.3132 28.0829 37.2295 28.6101C37.9648 29.0286 38.2272 29.3273 38.2272 29.7662C38.2272 30.2051 37.8517 30.5965 37.1729 30.5965C36.4817 30.5776 35.8045 30.3971 35.1955 30.0694L34.6028 31.7979C35.0553 32.1124 35.9874 32.3771 36.9851 32.3929C39.1571 32.411 40.7182 31.325 40.7182 29.3974C40.7182 28.3522 39.9286 27.6169 38.9829 27.0739Z" fill="#231F20"/>
<path d="M47.6368 23.465C46.5689 23.465 45.7273 23.974 45.0802 24.7432L45.044 24.7274L45.9716 19.8745H43.5553L41.2069 32.2251H43.6255L44.4309 28.0034C44.7454 26.4197 45.5621 25.4265 46.3404 25.4265C46.8834 25.4265 47.0938 25.7953 47.0938 26.3202C47.0932 26.6795 47.0576 27.0379 46.9875 27.3903L46.0825 32.2251H48.4852L49.4309 27.2319C49.5369 26.7103 49.596 26.1803 49.6074 25.6482C49.6165 24.2885 48.897 23.465 47.6368 23.465Z" fill="#231F20"/>
<path d="M55.0823 23.4658C52.1728 23.4658 50.2474 26.0948 50.2474 29.0202C50.2474 30.8935 51.4036 32.4003 53.5755 32.4003C56.4307 32.4003 58.3583 29.8437 58.3583 26.8482C58.3583 25.1129 57.3425 23.4658 55.0823 23.4658ZM53.89 30.5428C53.0665 30.5428 52.7158 29.8437 52.7158 28.9591C52.7158 27.5744 53.4352 25.3142 54.752 25.3142C55.6095 25.3142 55.8832 26.0495 55.8832 26.769C55.8877 28.2668 55.1683 30.5428 53.89 30.5428Z" fill="#231F20"/>
<path d="M64.5487 23.4658C63.5849 23.4658 62.6392 23.993 61.9899 24.9025H61.956L62.0962 23.6061H59.9582C59.8541 24.4817 59.6618 25.8142 59.4673 26.812L57.7863 35.6582H60.2048L60.87 32.0858H60.922C61.3611 32.3076 61.8489 32.4157 62.3406 32.4003C65.1732 32.4003 67.0374 29.493 67.0374 26.5495C67.0374 24.9206 66.3112 23.4658 64.5487 23.4658ZM62.2297 30.579C61.8655 30.5877 61.5106 30.463 61.232 30.2283L61.6347 27.9658C61.9152 26.4591 62.7026 25.4613 63.5442 25.4613C64.2795 25.4613 64.5057 26.14 64.5057 26.7916C64.5057 28.3527 63.5781 30.579 62.2297 30.579Z" fill="#231F20"/>
<path d="M70.481 19.9973C70.2982 19.9967 70.1172 20.0324 69.9483 20.1024C69.7795 20.1723 69.6262 20.2751 69.4974 20.4047C69.3685 20.5344 69.2668 20.6883 69.1979 20.8576C69.1291 21.0269 69.0946 21.2082 69.0964 21.391C69.0964 22.1082 69.5489 22.5991 70.2276 22.5991H70.2638C70.451 22.6077 70.638 22.5774 70.8129 22.5101C70.9878 22.4429 71.1469 22.3401 71.2802 22.2083C71.4134 22.0766 71.518 21.9186 71.5872 21.7445C71.6564 21.5703 71.6888 21.3837 71.6824 21.1964C71.6895 21.0369 71.6632 20.8776 71.6053 20.7288C71.5474 20.5799 71.4591 20.4448 71.3461 20.332C71.2331 20.2191 71.0978 20.1311 70.9488 20.0735C70.7999 20.0159 70.6405 19.9899 70.481 19.9973Z" fill="#231F20"/>
<path d="M67.0983 32.2256H69.5168L71.1639 23.6577H68.7295L67.0983 32.2256Z" fill="#231F20"/>
<path d="M77.3116 23.6529H75.6352L75.7234 23.2501C75.8637 22.4266 76.3546 21.689 77.1601 21.689C77.4216 21.6873 77.6816 21.7294 77.9293 21.8135L78.4021 19.9198C77.9827 19.7646 77.5368 19.6939 77.0899 19.7117C76.2337 19.6854 75.3964 19.9672 74.7302 20.5058C73.9066 21.2049 73.5198 22.2207 73.3275 23.2388L73.2483 23.6529H72.1284L71.789 25.4628H72.9089L71.6306 32.2253H74.0492L75.3162 25.4628H76.9791L77.3116 23.6529Z" fill="#231F20"/>
<path d="M83.1278 23.6538L81.6572 27.5C81.3065 28.4276 81.13 28.9728 80.9377 29.5498H80.9038C80.8676 28.9887 80.7974 28.3756 80.6934 27.5136L80.3088 23.6674H77.768L79.2205 31.5339C79.2399 31.601 79.2453 31.6714 79.2364 31.7407C79.2274 31.81 79.2043 31.8767 79.1685 31.9367C78.8529 32.519 78.403 33.0177 77.8563 33.3914C77.4389 33.682 76.9816 33.9106 76.4988 34.0702L77.1639 36.1199C78.0487 35.8842 78.861 35.4325 79.5282 34.8055C80.6323 33.7715 81.6481 32.1765 82.6956 30.0045L85.6549 23.6696L83.1278 23.6538Z" fill="#231F20"/>
</svg>
