<svg width="163" height="56" viewBox="0 0 163 56" fill="none" xmlns="http://www.w3.org/2000/svg">
<path d="M51.2847 52.4254L52.4276 49.7234H56.6595L57.8178 52.4254H59.6403L55.3158 42.4854H53.8022L49.4468 52.4254H51.2847ZM56.3197 48.5614H52.7365L54.559 44.2914L56.3197 48.5614ZM64.1656 55.5474C64.7731 55.5474 65.3394 55.4728 65.8645 55.3234C66.3896 55.1741 66.8452 54.9571 67.2314 54.6724C67.6175 54.3877 67.9186 54.0401 68.1349 53.6294C68.3511 53.2187 68.4592 52.7474 68.4592 52.2154V45.1034H66.9611V46.4894C66.6419 46.0414 66.2377 45.6774 65.7487 45.3974C65.2596 45.1174 64.6907 44.9774 64.042 44.9774C63.486 44.9774 62.9789 45.0777 62.5207 45.2784C62.0625 45.479 61.6687 45.7497 61.3392 46.0904C61.0097 46.431 60.7523 46.8324 60.567 47.2944C60.3816 47.7564 60.289 48.2487 60.289 48.7714C60.289 49.2661 60.3791 49.7374 60.5592 50.1854C60.7394 50.6334 60.9917 51.0301 61.316 51.3754C61.6404 51.7207 62.0291 51.9937 62.4821 52.1944C62.9352 52.3951 63.4345 52.4954 63.9802 52.4954C64.5363 52.4954 65.0665 52.3741 65.571 52.1314C66.0756 51.8887 66.472 51.5434 66.7603 51.0954V52.2154C66.7603 52.5887 66.6908 52.9107 66.5518 53.1814C66.4128 53.4521 66.2249 53.6761 65.9881 53.8534C65.7512 54.0307 65.4758 54.1614 65.1618 54.2454C64.8477 54.3294 64.5157 54.3714 64.1656 54.3714C63.6096 54.3714 63.087 54.2688 62.5979 54.0634C62.1089 53.8581 61.7099 53.5594 61.401 53.1674L60.4434 53.9794C60.845 54.4741 61.3418 54.8591 61.9338 55.1344C62.5259 55.4098 63.2698 55.5474 64.1656 55.5474ZM64.5363 51.2494C64.1759 51.2494 63.8438 51.1841 63.5401 51.0534C63.2363 50.9227 62.9712 50.7477 62.7447 50.5284C62.5181 50.3091 62.3405 50.0524 62.2118 49.7584C62.0831 49.4644 62.0188 49.1494 62.0188 48.8134C62.0188 48.496 62.0754 48.188 62.1887 47.8894C62.3019 47.5907 62.4615 47.3224 62.6674 47.0844C62.8734 46.8464 63.1231 46.655 63.4165 46.5104C63.71 46.3657 64.042 46.2934 64.4127 46.2934C64.6495 46.2934 64.8863 46.333 65.1231 46.4124C65.36 46.4917 65.5839 46.6014 65.795 46.7414C66.0061 46.8814 66.194 47.047 66.3587 47.2384C66.5235 47.4297 66.6573 47.642 66.7603 47.8754V49.7934C66.6985 49.9894 66.5955 50.1737 66.4514 50.3464C66.3072 50.5191 66.1348 50.6731 65.934 50.8084C65.7332 50.9437 65.5144 51.0511 65.2776 51.1304C65.0408 51.2097 64.7937 51.2494 64.5363 51.2494ZM74.1583 52.5654C75.0129 52.5654 75.762 52.3904 76.4055 52.0404C77.049 51.6904 77.5098 51.2401 77.7878 50.6894L76.336 50.3114C76.2536 50.4794 76.1404 50.6334 75.9962 50.7734C75.8521 50.9134 75.6873 51.0324 75.502 51.1304C75.3167 51.2284 75.1133 51.3031 74.8919 51.3544C74.6706 51.4057 74.4466 51.4314 74.2201 51.4314C73.9112 51.4314 73.6152 51.3801 73.332 51.2774C73.0489 51.1747 72.7966 51.0277 72.5752 50.8364C72.3538 50.6451 72.1737 50.4187 72.0347 50.1574C71.8956 49.8961 71.8107 49.6021 71.7798 49.2754H78.2511C78.2614 49.2101 78.2717 49.1284 78.282 49.0304C78.2923 48.9324 78.2975 48.8274 78.2975 48.7154C78.2975 48.2207 78.2022 47.747 78.0118 47.2944C77.8213 46.8417 77.5458 46.445 77.1855 46.1044C76.8251 45.7637 76.3901 45.4907 75.8804 45.2854C75.3707 45.08 74.8018 44.9774 74.1737 44.9774C73.5354 44.9774 72.9588 45.0777 72.4439 45.2784C71.9291 45.479 71.4889 45.7544 71.1234 46.1044C70.7579 46.4544 70.4747 46.8604 70.274 47.3224C70.0732 47.7844 69.9728 48.272 69.9728 48.7854C69.9728 49.2987 70.0732 49.7841 70.274 50.2414C70.4747 50.6987 70.7579 51.1001 71.1234 51.4454C71.4889 51.7907 71.9291 52.0637 72.4439 52.2644C72.9588 52.4651 73.5302 52.5654 74.1583 52.5654ZM76.614 48.2114H71.7335C71.7644 47.9034 71.8467 47.6187 71.9806 47.3574C72.1144 47.096 72.2895 46.8744 72.5057 46.6924C72.7219 46.5104 72.9716 46.368 73.2548 46.2654C73.5379 46.1627 73.8391 46.1114 74.1583 46.1114C74.4775 46.1114 74.7812 46.1627 75.0695 46.2654C75.3578 46.368 75.6101 46.5104 75.8263 46.6924C76.0426 46.8744 76.2202 47.096 76.3592 47.3574C76.4982 47.6187 76.5831 47.9034 76.614 48.2114ZM81.3864 52.4254V48.0714C81.4791 47.8194 81.6104 47.5884 81.7803 47.3784C81.9502 47.1684 82.1432 46.9864 82.3594 46.8324C82.5757 46.6784 82.8073 46.5594 83.0545 46.4754C83.3016 46.3914 83.5487 46.3494 83.7958 46.3494C84.2694 46.3494 84.6272 46.5057 84.8692 46.8184C85.1112 47.131 85.2322 47.6327 85.2322 48.3234V52.4254H86.9311V47.9594C86.9311 47.558 86.895 47.1777 86.823 46.8184C86.7509 46.459 86.6248 46.1417 86.4446 45.8664C86.2644 45.591 86.0198 45.374 85.7109 45.2154C85.402 45.0567 85.0056 44.9774 84.5217 44.9774C83.8112 44.9774 83.1626 45.1197 82.5757 45.4044C81.9888 45.689 81.5409 46.0787 81.232 46.5734V45.1034H79.6875V52.4254H81.3864ZM92.5684 52.5654C93.423 52.5654 94.1643 52.3904 94.7924 52.0404C95.4205 51.6904 95.8684 51.2401 96.1361 50.6894L94.4681 50.2414C94.4063 50.3814 94.3111 50.5121 94.1824 50.6334C94.0536 50.7547 93.9044 50.8621 93.7345 50.9554C93.5646 51.0487 93.3767 51.1211 93.1707 51.1724C92.9648 51.2237 92.7589 51.2494 92.5529 51.2494C92.2235 51.2494 91.912 51.1864 91.6185 51.0604C91.3251 50.9344 91.0677 50.7594 90.8463 50.5354C90.6249 50.3114 90.4499 50.0477 90.3212 49.7444C90.1925 49.4411 90.1281 49.1121 90.1281 48.7574C90.1281 48.3934 90.1899 48.062 90.3135 47.7634C90.437 47.4647 90.6069 47.2057 90.8231 46.9864C91.0394 46.767 91.2942 46.5967 91.5876 46.4754C91.8811 46.354 92.1977 46.2934 92.5375 46.2934C92.9391 46.2934 93.3046 46.3797 93.6341 46.5524C93.9636 46.725 94.2261 46.9654 94.4217 47.2734L96.0743 46.7974C95.7757 46.2467 95.3253 45.8057 94.7229 45.4744C94.1206 45.143 93.4024 44.9774 92.5684 44.9774C91.93 44.9774 91.3534 45.0777 90.8386 45.2784C90.3238 45.479 89.8836 45.752 89.5181 46.0974C89.1525 46.4427 88.872 46.844 88.6763 47.3014C88.4807 47.7587 88.3829 48.2441 88.3829 48.7574C88.3829 49.2707 88.4833 49.7561 88.684 50.2134C88.8848 50.6707 89.168 51.0744 89.5335 51.4244C89.899 51.7744 90.3392 52.0521 90.854 52.2574C91.3688 52.4627 91.9403 52.5654 92.5684 52.5654ZM98.6536 55.6034C99.292 55.6034 99.8145 55.4611 100.221 55.1764C100.628 54.8918 100.914 54.5394 101.078 54.1194L104.739 45.1034H103.133L100.909 51.0674L98.4065 45.1034H96.6612L99.9818 52.4254C99.8377 52.7987 99.7116 53.1044 99.6034 53.3424C99.4953 53.5804 99.3898 53.7647 99.2868 53.8954C99.1839 54.0261 99.0835 54.1171 98.9857 54.1684C98.8878 54.2197 98.772 54.2454 98.6381 54.2454C98.5455 54.2454 98.4245 54.2361 98.2752 54.2174C98.1259 54.1987 97.974 54.1754 97.8196 54.1474V55.4914C97.9843 55.5381 98.1336 55.5684 98.2675 55.5824C98.4013 55.5964 98.53 55.6034 98.6536 55.6034ZM111.751 52.4254V48.9674H114.716C115.21 48.9674 115.661 48.8764 116.067 48.6944C116.474 48.5124 116.822 48.2697 117.11 47.9664C117.398 47.663 117.622 47.3177 117.782 46.9304C117.941 46.543 118.021 46.1394 118.021 45.7194C118.021 45.318 117.936 44.9237 117.766 44.5364C117.597 44.149 117.362 43.8037 117.064 43.5004C116.765 43.197 116.407 42.952 115.99 42.7654C115.573 42.5787 115.118 42.4854 114.623 42.4854H110.021V52.4254H111.751ZM114.608 47.5814H111.751V43.8714H114.515C114.742 43.8714 114.961 43.9157 115.172 44.0044C115.383 44.093 115.571 44.219 115.735 44.3824C115.9 44.5457 116.029 44.7394 116.122 44.9634C116.214 45.1874 116.261 45.4394 116.261 45.7194C116.261 45.99 116.219 46.2374 116.137 46.4614C116.055 46.6854 115.941 46.8814 115.797 47.0494C115.653 47.2174 115.481 47.348 115.28 47.4414C115.079 47.5347 114.855 47.5814 114.608 47.5814ZM121.574 52.5654C122.181 52.5654 122.75 52.4511 123.28 52.2224C123.81 51.9937 124.256 51.6647 124.616 51.2354L124.662 51.6974C124.704 51.9307 124.814 52.1221 124.995 52.2714C125.175 52.4207 125.43 52.4954 125.759 52.4954C125.872 52.4954 125.988 52.4907 126.107 52.4814C126.225 52.4721 126.367 52.4534 126.531 52.4254V51.1094C126.233 51.1001 126.083 50.9321 126.083 50.6054V47.9594C126.083 46.998 125.774 46.2607 125.157 45.7474C124.539 45.234 123.674 44.9774 122.562 44.9774C121.44 44.9774 120.359 45.2947 119.319 45.9294L119.844 46.9094C120.286 46.6387 120.716 46.431 121.133 46.2864C121.55 46.1417 121.975 46.0694 122.408 46.0694C123.046 46.0694 123.535 46.221 123.875 46.5244C124.215 46.8277 124.384 47.25 124.384 47.7914V48.2954C124.086 48.1927 123.751 48.111 123.381 48.0504C123.01 47.9897 122.634 47.9594 122.253 47.9594C121.749 47.9594 121.288 48.0154 120.871 48.1274C120.454 48.2394 120.093 48.3981 119.79 48.6034C119.486 48.8087 119.252 49.0514 119.087 49.3314C118.922 49.6114 118.84 49.9241 118.84 50.2694C118.84 50.5961 118.909 50.8994 119.048 51.1794C119.187 51.4594 119.378 51.7021 119.62 51.9074C119.862 52.1127 120.15 52.2737 120.485 52.3904C120.819 52.5071 121.182 52.5654 121.574 52.5654ZM122.037 51.4314C121.574 51.4314 121.193 51.3077 120.894 51.0604C120.595 50.8131 120.446 50.5074 120.446 50.1434C120.446 49.7514 120.639 49.4364 121.025 49.1984C121.411 48.9604 121.908 48.8414 122.516 48.8414C122.825 48.8414 123.141 48.8694 123.466 48.9254C123.79 48.9814 124.096 49.0607 124.384 49.1634V50.1294C124.384 50.3161 124.276 50.4934 124.06 50.6614C123.854 50.9041 123.568 51.0931 123.203 51.2284C122.837 51.3637 122.449 51.4314 122.037 51.4314ZM129.836 52.4254V47.9454C130.053 47.4694 130.416 47.103 130.925 46.8464C131.435 46.5897 132.019 46.452 132.678 46.4334V45.0474C132.627 45.038 132.568 45.0334 132.501 45.0334H132.246C131.731 45.0614 131.25 45.227 130.802 45.5304C130.354 45.8337 129.991 46.2374 129.713 46.7414V45.1034H128.138V52.4254H129.836ZM136.292 52.5374C136.725 52.5374 137.131 52.4791 137.512 52.3624C137.893 52.2457 138.192 52.1407 138.408 52.0474L138.053 50.8294C137.95 50.8761 137.79 50.9367 137.574 51.0114C137.358 51.0861 137.131 51.1234 136.895 51.1234C136.658 51.1234 136.46 51.0651 136.3 50.9484C136.14 50.8317 136.05 50.6427 136.03 50.3814V46.2934H137.79V45.1034H136.03V42.6954H134.331V45.1034H133.265V46.2934H134.331V50.8714C134.331 51.1701 134.382 51.4244 134.485 51.6344C134.588 51.8444 134.73 52.0147 134.91 52.1454C135.09 52.2761 135.299 52.3741 135.536 52.4394C135.772 52.5047 136.025 52.5374 136.292 52.5374ZM141.281 52.4254V48.0714C141.374 47.8194 141.505 47.5884 141.675 47.3784C141.845 47.1684 142.038 46.9864 142.254 46.8324C142.47 46.6784 142.702 46.5594 142.949 46.4754C143.196 46.3914 143.443 46.3494 143.69 46.3494C144.164 46.3494 144.522 46.5057 144.764 46.8184C145.006 47.131 145.127 47.6327 145.127 48.3234V52.4254H146.826V47.9594C146.826 47.558 146.79 47.1777 146.718 46.8184C146.645 46.459 146.519 46.1417 146.339 45.8664C146.159 45.591 145.914 45.374 145.605 45.2154C145.297 45.0567 144.9 44.9774 144.416 44.9774C143.706 44.9774 143.057 45.1197 142.47 45.4044C141.883 45.689 141.435 46.0787 141.127 46.5734V45.1034H139.582V52.4254H141.281ZM152.463 52.5654C153.318 52.5654 154.067 52.3904 154.71 52.0404C155.354 51.6904 155.814 51.2401 156.092 50.6894L154.641 50.3114C154.558 50.4794 154.445 50.6334 154.301 50.7734C154.157 50.9134 153.992 51.0324 153.807 51.1304C153.621 51.2284 153.418 51.3031 153.197 51.3544C152.975 51.4057 152.751 51.4314 152.525 51.4314C152.216 51.4314 151.92 51.3801 151.637 51.2774C151.353 51.1747 151.101 51.0277 150.88 50.8364C150.658 50.6451 150.478 50.4187 150.339 50.1574C150.2 49.8961 150.115 49.6021 150.084 49.2754H156.556C156.566 49.2101 156.576 49.1284 156.587 49.0304C156.597 48.9324 156.602 48.8274 156.602 48.7154C156.602 48.2207 156.507 47.747 156.316 47.2944C156.126 46.8417 155.85 46.445 155.49 46.1044C155.13 45.7637 154.695 45.4907 154.185 45.2854C153.675 45.08 153.106 44.9774 152.478 44.9774C151.84 44.9774 151.263 45.0777 150.749 45.2784C150.234 45.479 149.794 45.7544 149.428 46.1044C149.063 46.4544 148.779 46.8604 148.579 47.3224C148.378 47.7844 148.277 48.272 148.277 48.7854C148.277 49.2987 148.378 49.7841 148.579 50.2414C148.779 50.6987 149.063 51.1001 149.428 51.4454C149.794 51.7907 150.234 52.0637 150.749 52.2644C151.263 52.4651 151.835 52.5654 152.463 52.5654ZM154.919 48.2114H150.038C150.069 47.9034 150.151 47.6187 150.285 47.3574C150.419 47.096 150.594 46.8744 150.81 46.6924C151.027 46.5104 151.276 46.368 151.559 46.2654C151.843 46.1627 152.144 46.1114 152.463 46.1114C152.782 46.1114 153.086 46.1627 153.374 46.2654C153.662 46.368 153.915 46.5104 154.131 46.6924C154.347 46.8744 154.525 47.096 154.664 47.3574C154.803 47.6187 154.888 47.9034 154.919 48.2114ZM159.691 52.4254V47.9454C159.907 47.4694 160.27 47.103 160.78 46.8464C161.29 46.5897 161.874 46.452 162.533 46.4334V45.0474C162.481 45.038 162.422 45.0334 162.355 45.0334H162.1C161.586 45.0614 161.104 45.227 160.656 45.5304C160.208 45.8337 159.845 46.2374 159.567 46.7414V45.1034H157.992V52.4254H159.691Z" fill="black"/>
<path d="M122.496 28.7782C122.495 29.2072 122.563 29.634 122.698 30.0441C122.705 30.0731 122.714 30.1014 122.726 30.1288C123.049 31.0991 123.698 31.9476 124.577 32.5502C125.456 33.1527 126.52 33.4775 127.611 33.477V38.2905C125.092 38.2905 123.288 38.3733 120.534 36.8628C117.412 35.1398 115.653 31.9891 115.653 28.718C115.653 25.3435 117.623 21.9633 120.961 20.3343C123.387 19.153 125.225 19.1455 127.618 19.1455V23.9572C126.26 23.9572 124.959 24.4587 123.999 25.3516C123.039 26.2444 122.5 27.4554 122.5 28.718L122.496 28.7782Z" fill="#69C9D0"/>
<path d="M132.735 28.7782C132.735 29.2072 132.667 29.6338 132.532 30.0441C132.532 30.0724 132.514 30.1006 132.504 30.1288C132.18 31.0988 131.532 31.947 130.652 32.5494C129.773 33.1519 128.71 33.4769 127.618 33.477V38.2905C130.136 38.2905 131.942 38.3733 134.686 36.8628C137.819 35.1398 139.582 31.9891 139.582 28.718C139.582 25.3435 137.613 21.9633 134.274 20.3343C131.847 19.153 130.009 19.1455 127.618 19.1455V23.9572C128.975 23.9577 130.277 24.4595 131.236 25.3522C132.196 26.245 132.735 27.4557 132.735 28.718V28.7782Z" fill="#EE1D52"/>
<path d="M49.8506 13.4023H68.5027L66.779 18.5368H61.8906V38.1883H55.8935V18.5368H49.8506V13.4023ZM99.2824 13.4023V18.5368H105.325V38.1883H111.33V18.5368H116.211L117.934 13.4023H99.2824ZM72.5611 19.2538C73.1359 19.2534 73.6976 19.0825 74.1753 18.7626C74.653 18.4428 75.0251 17.9884 75.2447 17.4569C75.4643 16.9254 75.5214 16.3407 75.4089 15.7768C75.2964 15.2128 75.0193 14.6949 74.6126 14.2885C74.2059 13.8821 73.6879 13.6055 73.1241 13.4937C72.5603 13.3819 71.9761 13.4399 71.4452 13.6603C70.9144 13.8808 70.4608 14.2538 70.1418 14.7322C69.8228 15.2106 69.6528 15.7729 69.6532 16.348C69.6532 16.7299 69.7284 17.1081 69.8746 17.4609C70.0208 17.8137 70.235 18.1342 70.5051 18.4041C70.7752 18.674 71.0958 18.8879 71.4486 19.0337C71.8014 19.1795 72.1795 19.2543 72.5611 19.2538ZM69.6532 38.1883H75.5408V21.3092H69.6532V38.1883ZM96.7227 19.1064H89.8359L83.9005 25.0455V13.4223H78.0507L78.0328 38.1883H83.9383V31.7354L85.7755 30.0605L91.5078 38.1804H97.8214L89.5174 26.3062L96.7227 19.1064ZM153.205 26.3102L160.404 19.1064H153.519L147.582 25.0455V13.4223H141.734L141.706 38.1883H147.613V31.7354L149.469 30.0605L155.201 38.1804H161.516L153.205 26.3102ZM138.065 28.1564C138.065 33.753 133.47 38.2919 127.801 38.2919C122.132 38.2919 117.536 33.753 117.536 28.1564C117.536 22.5599 122.132 18.021 127.801 18.021C133.47 18.021 138.065 22.5619 138.065 28.1604V28.1564ZM132.837 28.1564C132.837 27.1599 132.541 26.1856 131.988 25.357C131.435 24.5284 130.648 23.8825 129.728 23.5011C128.808 23.1198 127.795 23.02 126.819 23.2144C125.842 23.4088 124.944 23.8887 124.24 24.5934C123.536 25.2981 123.056 26.196 122.862 27.1734C122.668 28.1509 122.767 29.164 123.149 30.0847C123.53 31.0055 124.175 31.7924 125.003 32.3461C125.831 32.8998 126.805 33.1953 127.801 33.1953C129.136 33.1953 130.416 32.665 131.36 31.7209C132.305 30.7767 132.836 29.4961 132.837 28.1604V28.1564Z" fill="black"/>
<path d="M1.14551 39.321L1.30261 39.7466C1.28249 39.6979 1.22502 39.549 1.14551 39.321ZM7.36255 29.677C7.63844 27.3903 8.5753 26.11 10.3408 24.7975C12.8669 23.02 16.0223 24.0255 16.0223 24.0255V18.0605C16.7895 18.0409 17.5569 18.0864 18.3157 18.1966V25.8729C18.3157 25.8729 15.1612 24.8674 12.6351 26.6458C10.8705 27.9574 9.93175 29.2386 9.65682 31.5253C9.6482 32.767 9.88098 34.3901 10.9529 35.7936C10.6879 35.6575 10.4177 35.5025 10.1425 35.3285C7.78117 33.7412 7.35106 31.3598 7.36255 29.677ZM31.3446 7.03141C29.6069 5.12521 28.9498 3.20062 28.7122 1.84863H30.8982C30.8982 1.84863 30.4624 5.39358 33.6389 8.87971L33.683 8.92658C32.8268 8.38749 32.0417 7.75115 31.3446 7.03141ZM41.8753 12.4357V19.9576C41.8753 19.9576 39.0858 19.8482 37.0214 19.3225C34.1389 18.5872 32.2863 17.4595 32.2863 17.4595C32.2863 17.4595 31.0065 16.6552 30.903 16.5992V32.1319C30.903 32.9968 30.6664 35.1566 29.9451 36.9581C29.0034 39.3146 27.5502 40.8615 27.283 41.1776C27.283 41.1776 25.5156 43.2686 22.3974 44.6766C19.5868 45.9468 17.1192 45.9146 16.3816 45.9468C16.3816 45.9468 12.1159 46.1159 8.27739 43.6187C7.44734 43.0683 6.67253 42.4449 5.963 41.7566L5.98216 41.7704C9.82159 44.2676 14.0863 44.0985 14.0863 44.0985C14.8249 44.0663 17.2926 44.0985 20.1022 42.8283C23.2174 41.4203 24.9877 39.3293 24.9877 39.3293C25.2521 39.0131 26.712 37.4663 27.6498 35.1088C28.3693 33.3083 28.6078 31.1475 28.6078 30.2827V14.7518C28.7112 14.8088 29.9901 15.613 29.9901 15.613C29.9901 15.613 31.8437 16.7416 34.7262 17.476C36.7915 18.0017 39.5801 18.1111 39.5801 18.1111V12.2169C40.5342 12.4311 41.3475 12.489 41.8753 12.4357Z" fill="#EE1D52"/>
<path d="M39.8808 12.2506V18.1244C39.8808 18.1244 37.0849 18.0153 35.0142 17.4913C32.1241 16.7583 30.2656 15.6342 30.2656 15.6342C30.2656 15.6342 28.9834 14.8325 28.8797 14.7757V30.2612C28.8797 31.1234 28.6425 33.2773 27.9193 35.0722C26.9751 37.4222 25.5181 38.9641 25.2501 39.2793C25.2501 39.2793 23.4771 41.3637 20.3518 42.7673C17.5348 44.0335 15.0606 44.0014 14.3201 44.0335C14.3201 44.0335 10.0442 44.202 6.19466 41.7127L6.17546 41.699C5.76903 41.3073 5.38646 40.8937 5.02963 40.4603C3.8012 38.9697 3.04821 37.2069 2.859 36.7039C2.85867 36.7018 2.85867 36.6996 2.859 36.6975C2.55453 35.8234 1.91487 33.7244 2.00227 31.6914C2.1569 28.1045 3.4247 25.9029 3.7599 25.3513C4.64766 23.8473 5.80229 22.5016 7.17241 21.3741C8.38146 20.4012 9.75188 19.6271 11.2275 19.0836C12.8226 18.4455 14.5307 18.1034 16.2603 18.0758V24.0219C16.2603 24.0219 13.0965 23.0233 10.5647 24.7915C8.79462 26.0998 7.8553 27.3761 7.57868 29.6556C7.56716 31.3332 7.9984 33.707 10.364 35.2902C10.64 35.4643 10.9108 35.6188 11.1766 35.7538C11.5898 36.2885 12.0928 36.7544 12.6653 37.1327C14.9761 38.5885 16.9124 38.6902 19.3885 37.7447C21.0395 37.1125 22.2823 35.6878 22.8586 34.1092C23.2207 33.1234 23.2159 32.1312 23.2159 31.105V1.91504H28.9786C29.2168 3.26276 29.8757 5.18128 31.618 7.08147C32.3169 7.79894 33.1041 8.43327 33.9625 8.97066C34.216 9.23178 35.5126 10.5227 37.1771 11.3152C38.0378 11.7249 38.9449 12.0387 39.8808 12.2506Z" fill="black"/>
<path d="M11.1012 20.0088C9.6803 20.54 8.36064 21.2966 7.19636 22.2475C5.87656 23.3519 4.76496 24.67 3.91116 26.1429C3.58837 26.6801 2.36752 28.8338 2.21862 32.3396C2.13445 34.3267 2.75043 36.3783 3.04362 37.2326C3.0433 37.2346 3.0433 37.2367 3.04362 37.2388C3.22859 37.726 3.95093 39.4489 5.13386 40.9103C5.47748 41.334 5.84588 41.7382 6.23725 42.121C4.98328 41.2813 3.86494 40.2661 2.91876 39.1086C1.746 37.6642 1.02274 35.9592 0.834059 35.4559C0.833837 35.4523 0.833837 35.4487 0.834059 35.4452V35.4389C0.539945 34.5855 -0.0778791 32.533 0.00813541 30.5433C0.157042 27.0374 1.37789 24.8856 1.70068 24.3465C2.55423 22.8735 3.66586 21.5554 4.98588 20.4511C6.14992 19.4999 7.46964 18.7433 8.89075 18.2124C9.77717 17.8563 10.7006 17.5936 11.6451 17.4289C13.0684 17.1883 14.5222 17.1674 15.9523 17.3671V19.0237C14.2852 19.0501 12.6388 19.3845 11.1012 20.0088Z" fill="#69C9D0"/>
<path d="M29.2822 1.84351H23.6774V31.0364C23.6774 32.0626 23.6774 33.0521 23.3299 34.0408C22.7638 35.6186 21.5597 37.0433 19.9549 37.6756C17.5458 38.6248 15.6626 38.5194 13.416 37.0635C12.8583 36.6869 12.3678 36.2225 11.9644 35.6891C13.8784 36.6906 15.5916 36.6732 17.7139 35.8375C19.3178 35.2053 20.5238 33.7806 21.088 32.2018C21.4411 31.216 21.4364 30.2236 21.4364 29.1984V0H29.1757C29.1757 0 29.0888 0.725676 29.2822 1.84351ZM39.8808 10.5553V12.1798C38.9722 11.9675 38.0915 11.6537 37.2559 11.2443C35.6371 10.4517 34.376 9.16073 34.1294 8.8996C34.4156 9.08389 34.7125 9.25154 35.0187 9.40171C36.9869 10.3656 38.9252 10.6533 39.8808 10.5553Z" fill="#69C9D0"/>
</svg>
